<?xml version="1.0" encoding="utf-8"?>
<!-- Generator: Adobe Illustrator 27.0.0, SVG Export Plug-In . SVG Version: 6.00 Build 0)  -->
<svg version="1.2" baseProfile="tiny" id="layer" xmlns="http://www.w3.org/2000/svg" xmlns:xlink="http://www.w3.org/1999/xlink"
	 x="0px" y="0px" viewBox="0 0 480 480" overflow="visible" xml:space="preserve">
<g>
	<path fill="#6C4534" d="M385.05,99.53c65.03,55.76,90.64,126.14,70,209.14c-19.84,79.79-73.06,129.61-153.31,148.61
		c-76.59,18.13-161.08-14.31-205.89-77.58c4.29-4.2,9.87-4.97,14.85-3.1c23.01,8.63,48.45,8.65,70.58,20.27
		c15.7,8.25,30.91,7.37,44.53-4.25c22.95-19.57,49.44-29.91,79.1-34.68c26.08-4.2,42.88-21.27,48.69-46.66
		c4.77-20.84,11.74-40.54,19.71-60.31c17.36-43.02,22.48-87.18,5.91-132.02c-1.84-4.99-3.45-10.09-1.8-15.54
		C379.02,100.27,381.12,98.09,385.05,99.53z"/>
	<path fill="#A36952" d="M379.72,104.24c24.5,57.91,17.45,113.97-10.44,168.55c-5.62,11-6.52,22.95-8.86,34.51
		c-6.67,33.02-26.67,52.46-60.04,56.91c-27.06,3.61-50.78,14.52-71.27,32.7c-15.8,14.02-31.98,13.93-51.23,4.7
		c-25.65-12.3-54.31-15.96-82.04-21.91C5.23,315.62,0.32,213.59,46.65,134.48c6.96-11.88,18.23-19.12,31.09-23.84
		c26.67-9.79,47.39-26.88,60.99-51.8c14.44-26.47,39.31-34.23,66.28-38.45c62.63-9.82,115.63,8.1,158.22,55.54
		c3.81,4.25,7.82,8.33,11.73,12.48C374.41,94.33,379.14,98.66,379.72,104.24z"/>
	<path fill="#7B5240" d="M379.72,104.24c-3.88-4.58-10-8.49-4.76-15.82c3.36,3.7,6.73,7.41,10.09,11.11
		C383.27,101.1,381.5,102.67,379.72,104.24z"/>
	<path fill="#DCDCDC" d="M371.44,180.19c0.02,17.45-3.14,34.53-8.59,50.9c-7.32,21.98-14.85,43.72-20.9,66.22
		c-7.06,26.24-26.61,44.11-55.82,47.29c-18.51,2.01-34.12,9.28-47.62,22.46c-20.56,20.07-30.63,21.05-57.02,9.1
		c-5.95-2.69-12.49-4.65-18.95-5.56C62.83,356.52,17.38,262.2,53.81,168.6c8.23-21.15,19.05-36.73,44.55-42.93
		c26.27-6.39,46.44-25.97,57.09-52.01c5.93-14.51,15.93-21.55,30.28-25.84C282.49,18.89,371.59,82.24,371.44,180.19z"/>
	<path fill="#ADADAD" d="M343.92,185.84c1.38,12.54-2.4,26.01-6.59,39.34c-4.97,15.81-9.56,31.28-9.83,48.43
		c-0.41,25.26-30.31,53.73-55.62,54.11c-15.3,0.23-28.09,1.29-38.39,15.38c-6.56,8.99-20.49,15.14-30.36,11
		c-21.55-9.05-45.17-10.38-66.17-19.85C80.35,308.69,56.42,254.79,72.73,192c5.77-22.19,14.47-38.33,40.9-44.89
		c27.45-6.82,48.45-27.05,58.89-55.09c3.81-10.23,10.13-16.5,20.66-19.58C271.2,49.6,343.95,103.42,343.92,185.84z"/>
</g>
</svg>
